<svg xmlns="http://www.w3.org/2000/svg" xmlns:xlink="http://www.w3.org/1999/xlink" version="1.1" x="0px" y="0px" viewBox="0 0 100 125" enable-background="new 0 0 100 100" xml:space="preserve"><path d="M9.268,5.732C8.552,5.017,7.477,4.802,6.543,5.19C5.609,5.577,5,6.489,5,7.5v85C5,93.881,6.119,95,7.5,95h85  c1.011,0,1.923-0.609,2.31-1.543c0.387-0.934,0.173-2.009-0.542-2.724L9.268,5.732z M10,90V13.536L21.465,25l-3.232,3.232  c-0.977,0.976-0.977,2.559,0,3.535C18.72,32.256,19.36,32.5,20,32.5s1.28-0.244,1.768-0.732L25,28.535L31.465,35l-3.232,3.232  c-0.977,0.976-0.977,2.559,0,3.535C28.72,42.256,29.36,42.5,30,42.5s1.28-0.244,1.768-0.732L35,38.535L41.465,45l-3.232,3.232  c-0.977,0.976-0.977,2.559,0,3.535C38.72,52.256,39.36,52.5,40,52.5s1.28-0.244,1.768-0.732L45,48.535L51.465,55l-3.232,3.232  c-0.977,0.976-0.977,2.559,0,3.535C48.72,62.256,49.36,62.5,50,62.5s1.28-0.244,1.768-0.732L55,58.535L61.465,65l-3.232,3.232  c-0.977,0.976-0.977,2.559,0,3.535C58.72,72.256,59.36,72.5,60,72.5s1.28-0.244,1.768-0.732L65,68.535L71.465,75l-3.232,3.232  c-0.977,0.976-0.977,2.559,0,3.535C68.72,82.256,69.36,82.5,70,82.5s1.28-0.244,1.768-0.732L75,78.535L86.464,90H10z"/><path d="M24.268,45.732c-0.715-0.715-1.792-0.929-2.724-0.542C20.609,45.577,20,46.489,20,47.5v30c0,1.381,1.119,2.5,2.5,2.5h30  c0.006,0,0.012,0,0.02,0c1.381,0,2.5-1.119,2.5-2.5c0-0.786-0.363-1.488-0.931-1.946L24.268,45.732z M25,75V53.536L46.464,75H25z"/></svg>