<svg xmlns="http://www.w3.org/2000/svg" xmlns:xlink="http://www.w3.org/1999/xlink" version="1.1" x="0px" y="0px" viewBox="0 0 100 125" enable-background="new 0 0 100 100" xml:space="preserve"><path d="M24.268,5.732c-0.976-0.977-2.56-0.977-3.535,0l-15,15c-0.977,0.976-0.977,2.559,0,3.535l70,70  C76.22,94.756,76.86,95,77.5,95s1.28-0.244,1.768-0.732l15-15c0.977-0.976,0.977-2.559,0-3.535L24.268,5.732z M77.5,88.964  L71.035,82.5l3.232-3.232c0.977-0.976,0.977-2.559,0-3.535c-0.976-0.977-2.56-0.977-3.535,0L67.5,78.965L61.035,72.5l3.232-3.232  c0.977-0.976,0.977-2.559,0-3.535c-0.976-0.977-2.56-0.977-3.535,0L57.5,68.965L51.035,62.5l3.232-3.232  c0.977-0.976,0.977-2.559,0-3.535c-0.976-0.977-2.56-0.977-3.535,0L47.5,58.965L41.035,52.5l3.232-3.232  c0.977-0.976,0.977-2.559,0-3.535c-0.976-0.977-2.56-0.977-3.535,0L37.5,48.965L31.035,42.5l3.232-3.232  c0.977-0.976,0.977-2.559,0-3.535c-0.976-0.977-2.56-0.977-3.535,0L27.5,38.965L21.035,32.5l3.232-3.232  c0.977-0.976,0.977-2.559,0-3.535c-0.976-0.977-2.56-0.977-3.535,0L17.5,28.965L11.036,22.5L22.5,11.036L88.964,77.5L77.5,88.964z"/></svg>