<svg xmlns="http://www.w3.org/2000/svg" xmlns:xlink="http://www.w3.org/1999/xlink" version="1.1" x="0px" y="0px" viewBox="0 0 100 125" enable-background="new 0 0 100 100" xml:space="preserve"><path d="M50,5C25.187,5,5,25.187,5,50s20.187,45,45,45s45-20.187,45-45S74.813,5,50,5z M50,90c-22.056,0-40-17.944-40-40  s17.944-40,40-40s40,17.944,40,40S72.056,90,50,90z"/><path d="M19.27,48.23c-0.93-0.93-2.61-0.93-3.54,0C15.27,48.7,15,49.34,15,50c0,0.66,0.27,1.3,0.73,1.77  c0.47,0.46,1.11,0.73,1.77,0.73c0.66,0,1.3-0.27,1.77-0.73C19.73,51.3,20,50.66,20,50C20,49.34,19.73,48.7,19.27,48.23z"/><path d="M80.73,51.77c0.47,0.46,1.11,0.73,1.77,0.73c0.66,0,1.3-0.27,1.77-0.73C84.73,51.3,85,50.66,85,50  c0-0.66-0.27-1.3-0.73-1.77c-0.93-0.93-2.6-0.93-3.54,0C80.27,48.7,80,49.34,80,50C80,50.66,80.27,51.3,80.73,51.77z"/><path d="M50,20c0.66,0,1.3-0.27,1.77-0.73c0.46-0.47,0.73-1.11,0.73-1.77c0-0.66-0.27-1.3-0.73-1.77c-0.93-0.93-2.61-0.93-3.54,0  c-0.46,0.47-0.73,1.11-0.73,1.77c0,0.66,0.27,1.3,0.73,1.77C48.7,19.73,49.34,20,50,20z"/><path d="M48.23,80.73c-0.46,0.47-0.73,1.11-0.73,1.77c0,0.66,0.27,1.3,0.73,1.77C48.7,84.73,49.34,85,50,85  c0.66,0,1.3-0.27,1.77-0.73c0.46-0.47,0.73-1.11,0.73-1.77c0-0.66-0.27-1.3-0.73-1.77C50.84,79.8,49.16,79.8,48.23,80.73z"/><path d="M65,50c0-1.381-1.119-2.5-2.5-2.5h-10v-20c0-1.381-1.119-2.5-2.5-2.5s-2.5,1.119-2.5,2.5V50c0,1.381,1.119,2.5,2.5,2.5h12.5  C63.881,52.5,65,51.381,65,50z"/><path d="M31.98,20.09c-0.46,0.46-0.73,1.11-0.73,1.76c0,0.66,0.27,1.31,0.73,1.77c0.47,0.47,1.11,0.73,1.77,0.73  c0.66,0,1.3-0.26,1.77-0.73c0.46-0.46,0.73-1.11,0.73-1.77c0-0.65-0.27-1.3-0.73-1.76C34.59,19.16,32.91,19.16,31.98,20.09z"/><path d="M64.48,76.38c-0.46,0.46-0.73,1.11-0.73,1.77s0.27,1.3,0.73,1.76c0.47,0.47,1.11,0.74,1.77,0.74c0.66,0,1.3-0.27,1.77-0.74  c0.46-0.46,0.73-1.1,0.73-1.76s-0.27-1.31-0.73-1.77C67.08,75.45,65.41,75.45,64.48,76.38z"/><path d="M20.09,31.98c-0.47,0.47-0.74,1.11-0.74,1.77c0,0.66,0.27,1.3,0.74,1.77c0.46,0.46,1.11,0.73,1.76,0.73  c0.66,0,1.31-0.27,1.77-0.73c0.47-0.47,0.73-1.11,0.73-1.77c0-0.66-0.26-1.3-0.73-1.77C22.69,31.05,21.02,31.05,20.09,31.98z"/><path d="M76.38,64.48c-0.47,0.47-0.73,1.11-0.73,1.77c0,0.66,0.26,1.3,0.73,1.77c0.46,0.46,1.11,0.73,1.77,0.73s1.3-0.27,1.76-0.73  c0.47-0.47,0.74-1.11,0.74-1.77c0-0.66-0.27-1.3-0.74-1.77C78.98,63.55,77.31,63.55,76.38,64.48z"/><path d="M64.48,20.09c-0.46,0.46-0.73,1.11-0.73,1.76c0,0.66,0.27,1.31,0.73,1.77c0.47,0.47,1.11,0.73,1.77,0.73  c0.66,0,1.3-0.26,1.77-0.73c0.46-0.46,0.73-1.11,0.73-1.77c0-0.65-0.27-1.3-0.73-1.76C67.08,19.15,65.41,19.16,64.48,20.09z"/><path d="M31.98,76.38c-0.46,0.46-0.73,1.11-0.73,1.77c0,0.65,0.27,1.3,0.73,1.76c0.47,0.47,1.11,0.74,1.77,0.74  c0.66,0,1.3-0.27,1.77-0.74c0.46-0.46,0.73-1.11,0.73-1.76c0-0.66-0.27-1.31-0.73-1.77C34.59,75.45,32.91,75.45,31.98,76.38z"/><path d="M76.38,31.98c-0.47,0.47-0.73,1.11-0.73,1.77c0,0.66,0.26,1.3,0.73,1.77c0.47,0.46,1.11,0.73,1.77,0.73  c0.65,0,1.3-0.27,1.76-0.73c0.47-0.47,0.74-1.11,0.74-1.77c0-0.66-0.27-1.3-0.74-1.77C78.98,31.05,77.31,31.05,76.38,31.98z"/><path d="M20.09,64.48c-0.47,0.47-0.74,1.11-0.74,1.77c0,0.66,0.27,1.3,0.74,1.77c0.46,0.46,1.11,0.73,1.76,0.73  c0.66,0,1.31-0.27,1.77-0.73c0.47-0.47,0.73-1.11,0.73-1.77c0-0.66-0.26-1.3-0.73-1.77C22.7,63.55,21.01,63.55,20.09,64.48z"/></svg>