<svg xmlns="http://www.w3.org/2000/svg" xmlns:xlink="http://www.w3.org/1999/xlink" version="1.1" x="0px" y="0px" viewBox="0 0 100 125" enable-background="new 0 0 100 100" xml:space="preserve"><path d="M94.319,5.785C93.847,5.284,93.188,5,92.5,5h-85C6.489,5,5.577,5.609,5.19,6.543C4.804,7.478,5.018,8.553,5.732,9.268  l9.953,9.953l4.318,73.426C20.082,93.968,21.177,95,22.5,95h65c1.323,0,2.418-1.032,2.496-2.353l5-85  C95.036,6.959,94.791,6.286,94.319,5.785z M85.143,90H24.857l-4.236-72.022c-0.036-0.611-0.295-1.188-0.729-1.621L13.535,10h76.313  L85.143,90z"/><path d="M42.5,82.5h5c1.381,0,2.5-1.119,2.5-2.5s-1.119-2.5-2.5-2.5h-5c-1.381,0-2.5,1.119-2.5,2.5S41.119,82.5,42.5,82.5z"/><path d="M42.5,72.5h5c1.381,0,2.5-1.119,2.5-2.5s-1.119-2.5-2.5-2.5h-5c-1.381,0-2.5,1.119-2.5,2.5S41.119,72.5,42.5,72.5z"/><path d="M42.5,62.5h5c1.381,0,2.5-1.119,2.5-2.5s-1.119-2.5-2.5-2.5h-5c-1.381,0-2.5,1.119-2.5,2.5S41.119,62.5,42.5,62.5z"/><path d="M42.5,52.5h5c1.381,0,2.5-1.119,2.5-2.5s-1.119-2.5-2.5-2.5h-5c-1.381,0-2.5,1.119-2.5,2.5S41.119,52.5,42.5,52.5z"/><path d="M42.5,42.5h5c1.381,0,2.5-1.119,2.5-2.5s-1.119-2.5-2.5-2.5h-5c-1.381,0-2.5,1.119-2.5,2.5S41.119,42.5,42.5,42.5z"/><path d="M42.5,32.5h5c1.381,0,2.5-1.119,2.5-2.5s-1.119-2.5-2.5-2.5h-5c-1.381,0-2.5,1.119-2.5,2.5S41.119,32.5,42.5,32.5z"/><path d="M42.5,22.5h5c1.381,0,2.5-1.119,2.5-2.5s-1.119-2.5-2.5-2.5h-5c-1.381,0-2.5,1.119-2.5,2.5S41.119,22.5,42.5,22.5z"/></svg>