<svg xmlns="http://www.w3.org/2000/svg" xmlns:xlink="http://www.w3.org/1999/xlink" version="1.1" x="0px" y="0px" viewBox="0 0 100 125" enable-background="new 0 0 100 100" xml:space="preserve"><path d="M92.5,70H65V59.989c3.116-2.345,5-6.051,5-9.989c0-2.188-0.568-4.244-1.56-6.034l18.155-25.417  c0.766-1.073,0.568-2.556-0.453-3.39C78.168,8.649,68.034,5.063,57.605,5.063S37.042,8.649,29.069,15.159  c-1.021,0.834-1.219,2.317-0.453,3.39l18.041,25.257C45.609,45.634,45,47.745,45,50c0,3.938,1.884,7.644,5,9.989V70H7.5  C6.119,70,5,71.119,5,72.5v15C5,88.881,6.119,90,7.5,90H10v2.5c0,1.381,1.119,2.5,2.5,2.5h5c1.381,0,2.5-1.119,2.5-2.5V90h60v2.5  c0,1.381,1.119,2.5,2.5,2.5h5c1.381,0,2.5-1.119,2.5-2.5V90h2.5c1.381,0,2.5-1.119,2.5-2.5v-15C95,71.119,93.881,70,92.5,70z   M61.247,56.488C60.475,56.935,60,57.759,60,58.651V70h-5V58.651c0-0.892-0.475-1.716-1.247-2.163C51.438,55.147,50,52.661,50,50  c0-4.136,3.364-7.5,7.5-7.5S65,45.864,65,50C65,52.661,63.562,55.147,61.247,56.488z M34.088,17.607  c6.769-4.879,15.031-7.544,23.518-7.544s16.749,2.664,23.518,7.543L65.073,40.078c-2.104-1.61-4.724-2.578-7.573-2.578  c-0.813,0-1.605,0.084-2.375,0.233l-7.752-18.715c-0.528-1.276-1.993-1.883-3.266-1.353c-1.276,0.528-1.881,1.991-1.353,3.266  l7.752,18.715c-0.152,0.103-0.293,0.22-0.44,0.329L34.088,17.607z M90,85H10V75h42.5h10H90V85z"/><path d="M7.5,65h35c1.381,0,2.5-1.119,2.5-2.5S43.881,60,42.5,60h-35C6.119,60,5,61.119,5,62.5S6.119,65,7.5,65z"/><path d="M92.5,60h-20c-1.381,0-2.5,1.119-2.5,2.5s1.119,2.5,2.5,2.5h20c1.381,0,2.5-1.119,2.5-2.5S93.881,60,92.5,60z"/></svg>